<?xml version="1.0" encoding="UTF-8" standalone="no" ?>
<!DOCTYPE svg PUBLIC "-//W3C//DTD SVG 1.1//EN" "http://www.w3.org/Graphics/SVG/1.1/DTD/svg11.dtd">
<svg xmlns="http://www.w3.org/2000/svg" xmlns:xlink="http://www.w3.org/1999/xlink" version="1.1" width="100" height="100" viewBox="0 0 100 100" xml:space="preserve">
<desc>Created with Fabric.js 5.2.4</desc>
<defs>
</defs>
<rect x="0" y="0" width="100%" height="100%" fill="transparent"></rect>
<g transform="matrix(Infinity NaN NaN Infinity 0 0)" id="579f0649-c4d1-4b91-91c8-33146f8b75a9"  >
</g>
<g transform="matrix(1 0 0 1 50 50)" id="53998d17-00e2-4e3f-b9ac-f4c9d5f6769f"  >
<rect style="stroke: none; stroke-width: 1; stroke-dasharray: none; stroke-linecap: butt; stroke-dashoffset: 0; stroke-linejoin: miter; stroke-miterlimit: 4; fill: rgb(255,255,255); fill-rule: nonzero; opacity: 1; visibility: hidden;" vector-effect="non-scaling-stroke"  x="-50" y="-50" rx="0" ry="0" width="100" height="100" />
</g>
<g transform="matrix(0.14 0 0 0.14 45.97 46.94)"  >
<g style="" vector-effect="non-scaling-stroke"   >
		<g transform="matrix(4.12 0 0 3.46 -145.96 -15.81)" style="" id="text1"  >
		<text xml:space="preserve" font-family="Times New Roman" font-size="114.143" font-style="normal" font-weight="normal" style="stroke: rgb(0,0,0); stroke-width: 9.51; stroke-dasharray: none; stroke-linecap: butt; stroke-dashoffset: 0; stroke-linejoin: miter; stroke-miterlimit: 4; fill: rgb(0,0,0); fill-opacity: 0.57; fill-rule: evenodd; opacity: 1; visibility: hidden; white-space: pre;" ><tspan x="-41.22" y="35.86" >A</tspan></text>
</g>
		<g transform="matrix(4.39 0 0 3.26 74.19 -10.65)" style="" id="text2"  >
		<text xml:space="preserve" font-family="Times New Roman" font-size="116.815" font-style="normal" font-weight="normal" style="stroke: rgb(0,0,0); stroke-width: 9.73; stroke-dasharray: none; stroke-linecap: butt; stroke-dashoffset: 0; stroke-linejoin: miter; stroke-miterlimit: 4; fill: rgb(0,0,0); fill-opacity: 0.57; fill-rule: evenodd; opacity: 1; visibility: hidden; white-space: pre;" ><tspan x="-38.96" y="36.7" >C</tspan></text>
</g>
		<g transform="matrix(4.12 0 0 3.46 -80.2 14.59)" style="" id="text3"  >
		<text xml:space="preserve" font-family="Times New Roman" font-size="114.143" font-style="normal" font-weight="normal" style="stroke: rgb(0,0,0); stroke-width: 9.51; stroke-dasharray: none; stroke-linecap: butt; stroke-dashoffset: 0; stroke-linejoin: miter; stroke-miterlimit: 4; fill: rgb(0,0,0); fill-opacity: 0.57; fill-rule: evenodd; opacity: 1; visibility: hidden; white-space: pre;" ><tspan x="-41.22" y="35.86" >A</tspan></text>
</g>
		<g transform="matrix(4.39 0 0 3.26 115.2 14.32)" style="" id="text4"  >
		<text xml:space="preserve" font-family="Times New Roman" font-size="116.815" font-style="normal" font-weight="normal" style="stroke: rgb(0,0,0); stroke-width: 9.73; stroke-dasharray: none; stroke-linecap: butt; stroke-dashoffset: 0; stroke-linejoin: miter; stroke-miterlimit: 4; fill: rgb(0,0,0); fill-opacity: 0.57; fill-rule: evenodd; opacity: 0.49; visibility: hidden; white-space: pre;" ><tspan x="-38.96" y="36.7" >C</tspan></text>
</g>
		<g transform="matrix(4.12 0 0 3.46 -75.26 15.33)" style="" id="text1-8"  >
		<text xml:space="preserve" font-family="Times New Roman" font-size="114.143" font-style="normal" font-weight="normal" style="stroke: rgb(0,0,0); stroke-width: 9.51; stroke-dasharray: none; stroke-linecap: butt; stroke-dashoffset: 0; stroke-linejoin: miter; stroke-miterlimit: 4; fill: rgb(0,0,0); fill-opacity: 0.57; fill-rule: evenodd; opacity: 1; visibility: hidden; white-space: pre;" ><tspan x="-41.22" y="35.86" >A</tspan></text>
</g>
		<g transform="matrix(4.39 0 0 3.26 144.89 20.49)" style="" id="text2-4"  >
		<text xml:space="preserve" font-family="Times New Roman" font-size="116.815" font-style="normal" font-weight="normal" style="stroke: rgb(0,0,0); stroke-width: 9.73; stroke-dasharray: none; stroke-linecap: butt; stroke-dashoffset: 0; stroke-linejoin: miter; stroke-miterlimit: 4; fill: rgb(0,0,0); fill-opacity: 0.57; fill-rule: evenodd; opacity: 1; visibility: hidden; white-space: pre;" ><tspan x="-38.96" y="36.7" >C</tspan></text>
</g>
		<g transform="matrix(3.78 0 0 3.78 127.27 -5.43)"  >
<path style="stroke: rgb(255,255,255); stroke-width: 10; stroke-dasharray: none; stroke-linecap: butt; stroke-dashoffset: 0; stroke-linejoin: miter; stroke-miterlimit: 4; fill: rgb(255,255,255); fill-rule: evenodd; opacity: 1; visibility: hidden;" vector-effect="non-scaling-stroke"  transform=" translate(-120.39, -166.61)" d="M 166.97079 132.65756 L 166.97179 150.99232999999998 L 158.27568 150.99132999999998 L 157.50534 150.50409999999997 L 156.91484 150.14453999999998 C 156.38744 149.81253999999998 155.85533999999998 149.48800999999997 155.31874 149.17108999999996 C 154.66153 148.78292999999996 153.99758 148.40619999999996 153.328 148.03978999999995 C 152.5512 147.61470999999995 151.76675 147.20348999999996 150.97294 146.81109999999995 C 147.42166 145.05563999999995 143.68166 143.67825999999997 139.83222999999998 142.74276999999995 C 134.08686999999998 141.34652999999994 128.10190999999998 140.94190999999995 122.22089999999999 141.55213999999995 L 118.47538999999999 142.10610999999994 L 114.9862 143.01561999999996 C 113.01866 143.64961999999994 111.13441 144.54156999999995 109.39688 145.66144999999995 C 106.39599 147.59558999999996 103.83270999999999 150.22541999999996 102.06295999999999 153.32609999999994 C 99.97308199999999 156.98764999999995 99.02525299999999 161.21970999999994 98.82181399999999 165.43078999999994 C 98.66352499999999 168.70728999999994 98.94609599999998 172.03009999999995 99.94629299999998 175.15421999999995 C 101.66131999999999 180.51112999999995 105.49796999999998 185.10938999999996 110.33118999999998 187.98651999999996 C 111.73972999999998 188.82499999999996 113.22937999999998 189.52425999999997 114.76295999999998 190.10317999999995 C 121.31242999999998 192.57555999999994 128.55476 192.80186999999995 135.46659999999997 191.69067999999996 C 142.23796999999996 190.60206999999997 148.80481999999998 188.25434999999996 154.73157999999998 184.80324999999996 L 158.29519 182.60389999999995 L 166.96856 182.41345999999996 L 166.96856 200.62966999999995 C 164.23253 201.55533999999994 161.49117 202.46525999999994 158.74466999999999 203.35937999999996 C 154.66704 204.68683999999996 150.57094999999998 205.98136999999997 146.38145999999998 206.89646999999997 C 137.50418999999997 208.83549999999997 128.30898999999997 209.04249999999996 119.26087999999997 208.20739999999998 C 112.06832999999997 207.54355999999999 104.87271999999997 206.20738999999998 98.22650099999997 203.37874999999997 C 91.61104099999997 200.56319999999997 85.56342499999997 196.21779999999995 81.29316799999997 190.43363999999997 C 77.51798599999996 185.32006999999996 75.21346899999996 179.19246999999996 74.28170999999996 172.90498999999997 C 73.32528699999996 166.45106999999996 73.79955699999996 159.75532999999996 75.93535599999996 153.59040999999996 C 77.91180199999995 147.88545999999997 81.29808499999996 142.68491999999998 85.65879299999996 138.50915999999995 C 89.57119499999996 134.76268999999996 94.24037499999996 131.84701999999996 99.21868899999996 129.71175999999994 C 105.41637999999996 127.05349999999994 112.08480999999995 125.59161999999993 118.79785999999996 124.94925999999994 C 125.30717999999996 124.32638999999993 131.88119999999995 124.46312999999994 138.37701999999996 125.21384999999994 C 146.77454999999995 126.18434999999994 155.04995999999997 128.18140999999994 162.98326999999995 131.10082999999995 C 164.32239999999996 131.59361999999996 165.65188999999995 132.11258999999995 166.97072999999995 132.65733999999995 z" stroke-linecap="round" />
</g>
		<g transform="matrix(3.78 0 0 3.78 -89.11 -5.1)"  >
<path style="stroke: rgb(0,0,0); stroke-width: 4; stroke-dasharray: none; stroke-linecap: butt; stroke-dashoffset: 0; stroke-linejoin: miter; stroke-miterlimit: 4; fill: rgb(249,249,249); fill-rule: evenodd; opacity: 1;" vector-effect="non-scaling-stroke"  transform=" translate(-45.74, -158.66)" d="M 57.392362 116.22598 L 34.081124 116.29158000000001 L -2.656168600000001 201.06470000000002 L 20.747571 200.84973000000002 L 29.392521000000002 179.86186000000004 L 61.234505 179.81376000000003 L 70.071692 201.08946000000003 L 94.133272 201.08946000000003 z" stroke-linecap="round" />
</g>
		<g transform="matrix(3.78 0 0 3.78 -90.35 -28.57)"  >
<path style="stroke: rgb(0,0,0); stroke-width: 4; stroke-dasharray: none; stroke-linecap: butt; stroke-dashoffset: 0; stroke-linejoin: miter; stroke-miterlimit: 4; fill: rgb(255,255,255); fill-rule: evenodd; opacity: 1;" vector-effect="non-scaling-stroke"  transform=" translate(-45.42, -152.45)" d="M 45.432886 142.43265 L 36.88147000000001 162.4676 L 53.952262000000005 162.4686 L 53.95174600000001 162.3694 z" stroke-linecap="round" />
</g>
		<g transform="matrix(3.78 0 0 3.78 127.27 -5.43)"  >
<path style="stroke: rgb(255,255,255); stroke-width: 14; stroke-dasharray: none; stroke-linecap: butt; stroke-dashoffset: 0; stroke-linejoin: miter; stroke-miterlimit: 4; fill: rgb(255,255,255); fill-rule: evenodd; opacity: 1;" vector-effect="non-scaling-stroke"  transform=" translate(-120.39, -166.61)" d="M 166.97079 132.65756 L 166.97179 150.99232999999998 L 158.27568 150.99132999999998 L 157.50534 150.50409999999997 L 156.91484 150.14453999999998 C 156.38744 149.81253999999998 155.85533999999998 149.48800999999997 155.31874 149.17108999999996 C 154.66153 148.78292999999996 153.99758 148.40619999999996 153.328 148.03978999999995 C 152.5512 147.61470999999995 151.76675 147.20348999999996 150.97294 146.81109999999995 C 147.42166 145.05563999999995 143.68166 143.67825999999997 139.83222999999998 142.74276999999995 C 134.08686999999998 141.34652999999994 128.10190999999998 140.94190999999995 122.22089999999999 141.55213999999995 L 118.47538999999999 142.10610999999994 L 114.9862 143.01561999999996 C 113.01866 143.64961999999994 111.13441 144.54156999999995 109.39688 145.66144999999995 C 106.39599 147.59558999999996 103.83270999999999 150.22541999999996 102.06295999999999 153.32609999999994 C 99.97308199999999 156.98764999999995 99.02525299999999 161.21970999999994 98.82181399999999 165.43078999999994 C 98.66352499999999 168.70728999999994 98.94609599999998 172.03009999999995 99.94629299999998 175.15421999999995 C 101.66131999999999 180.51112999999995 105.49796999999998 185.10938999999996 110.33118999999998 187.98651999999996 C 111.73972999999998 188.82499999999996 113.22937999999998 189.52425999999997 114.76295999999998 190.10317999999995 C 121.31242999999998 192.57555999999994 128.55476 192.80186999999995 135.46659999999997 191.69067999999996 C 142.23796999999996 190.60206999999997 148.80481999999998 188.25434999999996 154.73157999999998 184.80324999999996 L 158.29519 182.60389999999995 L 166.96856 182.41345999999996 L 166.96856 200.62966999999995 C 164.23253 201.55533999999994 161.49117 202.46525999999994 158.74466999999999 203.35937999999996 C 154.66704 204.68683999999996 150.57094999999998 205.98136999999997 146.38145999999998 206.89646999999997 C 137.50418999999997 208.83549999999997 128.30898999999997 209.04249999999996 119.26087999999997 208.20739999999998 C 112.06832999999997 207.54355999999999 104.87271999999997 206.20738999999998 98.22650099999997 203.37874999999997 C 91.61104099999997 200.56319999999997 85.56342499999997 196.21779999999995 81.29316799999997 190.43363999999997 C 77.51798599999996 185.32006999999996 75.21346899999996 179.19246999999996 74.28170999999996 172.90498999999997 C 73.32528699999996 166.45106999999996 73.79955699999996 159.75532999999996 75.93535599999996 153.59040999999996 C 77.91180199999995 147.88545999999997 81.29808499999996 142.68491999999998 85.65879299999996 138.50915999999995 C 89.57119499999996 134.76268999999996 94.24037499999996 131.84701999999996 99.21868899999996 129.71175999999994 C 105.41637999999996 127.05349999999994 112.08480999999995 125.59161999999993 118.79785999999996 124.94925999999994 C 125.30717999999996 124.32638999999993 131.88119999999995 124.46312999999994 138.37701999999996 125.21384999999994 C 146.77454999999995 126.18434999999994 155.04995999999997 128.18140999999994 162.98326999999995 131.10082999999995 C 164.32239999999996 131.59361999999996 165.65188999999995 132.11258999999995 166.97072999999995 132.65733999999995 z" stroke-linecap="round" />
</g>
		<g transform="matrix(3.78 0 0 3.78 127.27 -5.43)"  >
<path style="stroke: rgb(0,0,0); stroke-width: 4; stroke-dasharray: none; stroke-linecap: butt; stroke-dashoffset: 0; stroke-linejoin: miter; stroke-miterlimit: 4; fill: rgb(255,255,255); fill-rule: evenodd; opacity: 1;" vector-effect="non-scaling-stroke"  transform=" translate(-120.39, -166.61)" d="M 166.97079 132.65756 L 166.97179 150.99232999999998 L 158.27568 150.99132999999998 L 157.50534 150.50409999999997 L 156.91484 150.14453999999998 C 156.38744 149.81253999999998 155.85533999999998 149.48800999999997 155.31874 149.17108999999996 C 154.66153 148.78292999999996 153.99758 148.40619999999996 153.328 148.03978999999995 C 152.5512 147.61470999999995 151.76675 147.20348999999996 150.97294 146.81109999999995 C 147.42166 145.05563999999995 143.68166 143.67825999999997 139.83222999999998 142.74276999999995 C 134.08686999999998 141.34652999999994 128.10190999999998 140.94190999999995 122.22089999999999 141.55213999999995 L 118.47538999999999 142.10610999999994 L 114.9862 143.01561999999996 C 113.01866 143.64961999999994 111.13441 144.54156999999995 109.39688 145.66144999999995 C 106.39599 147.59558999999996 103.83270999999999 150.22541999999996 102.06295999999999 153.32609999999994 C 99.97308199999999 156.98764999999995 99.02525299999999 161.21970999999994 98.82181399999999 165.43078999999994 C 98.66352499999999 168.70728999999994 98.94609599999998 172.03009999999995 99.94629299999998 175.15421999999995 C 101.66131999999999 180.51112999999995 105.49796999999998 185.10938999999996 110.33118999999998 187.98651999999996 C 111.73972999999998 188.82499999999996 113.22937999999998 189.52425999999997 114.76295999999998 190.10317999999995 C 121.31242999999998 192.57555999999994 128.55476 192.80186999999995 135.46659999999997 191.69067999999996 C 142.23796999999996 190.60206999999997 148.80481999999998 188.25434999999996 154.73157999999998 184.80324999999996 L 158.29519 182.60389999999995 L 166.96856 182.41345999999996 L 166.96856 200.62966999999995 C 164.23253 201.55533999999994 161.49117 202.46525999999994 158.74466999999999 203.35937999999996 C 154.66704 204.68683999999996 150.57094999999998 205.98136999999997 146.38145999999998 206.89646999999997 C 137.50418999999997 208.83549999999997 128.30898999999997 209.04249999999996 119.26087999999997 208.20739999999998 C 112.06832999999997 207.54355999999999 104.87271999999997 206.20738999999998 98.22650099999997 203.37874999999997 C 91.61104099999997 200.56319999999997 85.56342499999997 196.21779999999995 81.29316799999997 190.43363999999997 C 77.51798599999996 185.32006999999996 75.21346899999996 179.19246999999996 74.28170999999996 172.90498999999997 C 73.32528699999996 166.45106999999996 73.79955699999996 159.75532999999996 75.93535599999996 153.59040999999996 C 77.91180199999995 147.88545999999997 81.29808499999996 142.68491999999998 85.65879299999996 138.50915999999995 C 89.57119499999996 134.76268999999996 94.24037499999996 131.84701999999996 99.21868899999996 129.71175999999994 C 105.41637999999996 127.05349999999994 112.08480999999995 125.59161999999993 118.79785999999996 124.94925999999994 C 125.30717999999996 124.32638999999993 131.88119999999995 124.46312999999994 138.37701999999996 125.21384999999994 C 146.77454999999995 126.18434999999994 155.04995999999997 128.18140999999994 162.98326999999995 131.10082999999995 C 164.32239999999996 131.59361999999996 165.65188999999995 132.11258999999995 166.97072999999995 132.65733999999995 z" stroke-linecap="round" />
</g>
</g>
</g>
</svg>