<?xml version="1.0" encoding="utf-8"?>
<svg
	version="1.1"
	xmlns="http://www.w3.org/2000/svg"
	xmlns:xlink="http://www.w3.org/1999/xlink"
	x="0px" y="0px"
	width="20.0px" height="20.0px"
	viewBox="0 0 20.0 20.0"
	enable-background="new 0 0 20.0 20.0"
	xml:space="preserve">
	<path
		fill="#CCCCCC"
		stroke="#000000"
		fill-opacity="1.000"
		stroke-opacity="1.000"
		fill-rule="nonzero"
		stroke-width="0.0"
		stroke-linejoin="miter"
		stroke-linecap="square"
		d="M0.00,0.00L20.00,0.00L20.00,20.00L0.00,20.00z"/>
	<path
		fill="#FF0037"
		stroke="#000000"
		fill-opacity="1.000"
		stroke-opacity="1.000"
		fill-rule="nonzero"
		stroke-width="0.5500192"
		stroke-linejoin="miter"
		stroke-linecap="square"
		d="M9.84,13.82L5.40,13.84L3.72,17.76L0.66,17.76L7.78,2.20L10.21,2.20L11.06,4.04"/>
	<path
		fill="#FFFFFF"
		stroke="#000101"
		fill-opacity="1.000"
		stroke-opacity="1.000"
		fill-rule="nonzero"
		stroke-width="0.5500192"
		stroke-linejoin="miter"
		stroke-linecap="square"
		d="M9.57,11.65L6.38,11.63L9.00,5.62L9.85,7.53"/>
	<path
		fill="#FF0035"
		stroke="#000000"
		fill-opacity="1.000"
		stroke-opacity="1.000"
		fill-rule="nonzero"
		stroke-width="0.5500192"
		stroke-linejoin="miter"
		stroke-linecap="square"
		d="M19.33,12.44C19.32,12.83,19.31,13.23,19.22,13.68C19.13,14.14,18.95,14.66,18.72,15.12C18.48,15.58,18.20,15.98,17.84,16.35C17.49,16.73,17.07,17.08,16.64,17.32C16.21,17.55,15.78,17.67,15.39,17.74C15.01,17.81,14.66,17.82,14.17,17.75C13.67,17.68,13.02,17.53,12.48,17.21C11.94,16.89,11.52,16.41,11.24,16.02C10.96,15.63,10.83,15.34,10.70,15.09C10.58,14.84,10.46,14.64,10.31,14.18C10.17,13.73,10.00,13.00,9.90,12.51C9.79,12.02,9.76,11.76,9.74,11.50C9.72,11.25,9.71,11.00,9.70,10.74C9.69,10.47,9.69,10.19,9.70,9.75C9.71,9.31,9.73,8.72,9.79,8.20C9.85,7.68,9.95,7.22,10.02,6.94C10.08,6.66,10.12,6.55,10.19,6.36C10.26,6.16,10.35,5.88,10.45,5.62C10.55,5.35,10.65,5.11,10.81,4.81C10.98,4.52,11.20,4.16,11.40,3.90C11.60,3.63,11.78,3.45,12.05,3.26C12.31,3.06,12.65,2.86,12.90,2.73C13.14,2.60,13.28,2.55,13.54,2.50C13.80,2.45,14.18,2.39,14.54,2.37C14.89,2.35,15.23,2.36,15.57,2.43C15.92,2.50,16.29,2.61,16.58,2.75C16.88,2.89,17.10,3.05,17.31,3.22C17.52,3.39,17.73,3.57,17.95,3.84C18.17,4.11,18.40,4.46,18.56,4.76C18.73,5.06,18.82,5.30,18.92,5.58C19.02,5.85,19.12,6.17,19.19,6.47C19.25,6.77,19.28,7.05,19.30,7.32C19.32,7.59,19.33,7.85,19.34,8.11L17.04,8.10C17.03,7.88,17.02,7.65,16.98,7.40C16.95,7.15,16.88,6.87,16.79,6.61C16.70,6.35,16.59,6.12,16.42,5.88C16.26,5.64,16.04,5.38,15.77,5.21C15.51,5.03,15.20,4.95,14.90,4.92C14.61,4.90,14.34,4.94,14.08,5.03C13.81,5.11,13.57,5.24,13.35,5.43C13.14,5.62,12.96,5.88,12.80,6.19C12.63,6.51,12.48,6.88,12.38,7.27C12.28,7.66,12.23,8.07,12.19,8.38C12.15,8.68,12.12,8.89,12.10,9.25C12.08,9.60,12.09,10.10,12.10,10.53C12.11,10.95,12.13,11.30,12.17,11.64C12.20,11.98,12.24,12.31,12.33,12.68C12.41,13.04,12.54,13.43,12.67,13.73C12.80,14.03,12.94,14.23,13.09,14.44C13.25,14.64,13.42,14.83,13.69,14.98C13.96,15.12,14.32,15.22,14.71,15.22C15.10,15.22,15.50,15.14,15.88,14.89C16.25,14.64,16.59,14.22,16.78,13.79C16.97,13.35,17.00,12.89,17.03,12.44L19.33,12.44z"/>
</svg>